<svg width="650" height="517" viewBox="0 0 650 517" fill="none" xmlns="http://www.w3.org/2000/svg">
<g clip-path="url(#clip0)">
<path d="M484.634 510.031C475.641 502.432 470.179 490.428 471.611 478.743C473.044 467.057 481.916 456.315 493.425 453.833C504.933 451.352 518.052 458.221 521.548 469.463C523.472 447.788 525.688 425.206 537.212 406.748C547.646 390.035 565.719 378.076 585.305 375.936C604.891 373.797 625.513 381.877 637.729 397.337C649.944 412.796 652.935 435.271 644.379 453.019C638.077 466.094 626.466 475.824 614.3 483.74C574.989 509.105 527.84 519.42 481.528 512.787" fill="#F2F2F2"/>
<path d="M618.36 382.325C602.199 395.489 587.373 410.211 574.096 426.279C553.318 451.34 536.504 479.438 524.24 509.593C523.342 511.793 526.915 512.751 527.802 510.575C547.868 461.566 579.901 418.37 620.972 384.937C622.816 383.436 620.189 380.836 618.36 382.325Z" fill="white"/>
<path d="M158.838 515.231H107.838C106.114 515.229 104.462 514.544 103.244 513.326C102.025 512.107 101.34 510.455 101.338 508.731V402.731C101.34 401.008 102.025 399.356 103.244 398.137C104.462 396.919 106.114 396.233 107.838 396.231H158.838C160.561 396.233 162.213 396.919 163.432 398.137C164.65 399.356 165.336 401.008 165.338 402.731V508.731C165.336 510.455 164.65 512.107 163.432 513.326C162.213 514.544 160.561 515.229 158.838 515.231Z" fill="#343A40"/>
<path d="M279.838 516.231H228.838C226.849 516.229 224.943 515.438 223.537 514.032C222.131 512.626 221.34 510.72 221.338 508.731V302.731C221.34 300.743 222.131 298.837 223.537 297.431C224.943 296.025 226.849 295.234 228.838 295.231H279.838C281.826 295.234 283.733 296.025 285.139 297.431C286.545 298.837 287.336 300.743 287.338 302.731V508.731C287.336 510.72 286.545 512.626 285.139 514.032C283.733 515.438 281.826 516.229 279.838 516.231V516.231ZM228.838 297.231C227.38 297.233 225.982 297.813 224.951 298.844C223.919 299.875 223.339 301.273 223.338 302.731V508.731C223.339 510.19 223.919 511.588 224.951 512.619C225.982 513.65 227.38 514.23 228.838 514.231H279.838C281.296 514.23 282.694 513.65 283.725 512.619C284.756 511.588 285.336 510.19 285.338 508.731V302.731C285.336 301.273 284.756 299.875 283.725 298.844C282.694 297.813 281.296 297.233 279.838 297.231H228.838Z" fill="#3F3D56"/>
<path d="M400.838 516.231H349.838C347.849 516.229 345.943 515.438 344.537 514.032C343.131 512.626 342.34 510.72 342.338 508.731V171.731C342.34 169.743 343.131 167.837 344.537 166.431C345.943 165.025 347.849 164.234 349.838 164.231H400.838C402.826 164.234 404.733 165.025 406.139 166.431C407.545 167.837 408.336 169.743 408.338 171.731V508.731C408.336 510.72 407.545 512.626 406.139 514.032C404.733 515.438 402.826 516.229 400.838 516.231V516.231ZM349.838 166.231C348.38 166.233 346.982 166.813 345.95 167.844C344.919 168.875 344.339 170.273 344.338 171.731V508.731C344.339 510.19 344.919 511.588 345.95 512.619C346.982 513.65 348.38 514.23 349.838 514.231H400.838C402.296 514.23 403.694 513.65 404.725 512.619C405.756 511.588 406.336 510.19 406.338 508.731V171.731C406.336 170.273 405.756 168.875 404.725 167.844C403.694 166.813 402.296 166.233 400.838 166.231H349.838Z" fill="#3F3D56"/>
<path d="M522.967 515.731H471.967C470.244 515.729 468.592 515.044 467.373 513.825C466.155 512.607 465.469 510.955 465.467 509.231V34.2314C465.469 32.5081 466.155 30.856 467.373 29.6375C468.592 28.4189 470.244 27.7334 471.967 27.7314H522.967C524.69 27.7334 526.343 28.4189 527.561 29.6375C528.78 30.856 529.465 32.5081 529.467 34.2314V509.231C529.465 510.955 528.78 512.607 527.561 513.825C526.343 515.044 524.69 515.729 522.967 515.731Z" fill="#343A40"/>
<path d="M205.779 222.358C205.964 220.9 205.827 219.419 205.378 218.019C204.929 216.619 204.178 215.335 203.179 214.257C202.179 213.179 200.956 212.333 199.594 211.779C198.232 211.224 196.766 210.976 195.298 211.05L177.521 178.44L173.521 192.44L185.7 222.326C185.988 224.784 187.167 227.052 189.015 228.699C190.863 230.345 193.25 231.257 195.725 231.261C198.2 231.265 200.591 230.361 202.444 228.72C204.297 227.079 205.484 224.816 205.779 222.358V222.358Z" fill="#FFC8A9"/>
<path d="M68.816 351.113L78.717 358.342L111.312 323.589L96.698 312.92L68.816 351.113Z" fill="#FFC8A9"/>
<path d="M91.1011 381.478L59.9811 358.758L68.759 346.735L87.8554 360.676C91.0443 363.004 93.1777 366.504 93.7864 370.405C94.3951 374.306 93.4291 378.289 91.1011 381.478V381.478L91.1011 381.478Z" fill="#2F2E41"/>
<path d="M121.201 389.377L133.461 389.376L139.293 342.088L121.199 342.089L121.201 389.377Z" fill="#FFC8A9"/>
<path d="M157.105 400.759L118.575 400.761L118.574 385.874L142.218 385.873C146.166 385.873 149.953 387.441 152.745 390.233C155.537 393.025 157.105 396.811 157.105 400.759V400.759V400.759Z" fill="#2F2E41"/>
<path d="M158.021 204.94C158.021 204.94 164.021 262.94 149.021 302.94L138.021 378.941H119.021L121.021 288.94L114.021 208.94C114.021 208.94 128.021 172.94 158.021 204.94Z" fill="#2F2E41"/>
<path d="M93.021 208.94L113.021 277.94L74.021 339.94L93.521 356.44L138.021 286.94L125.021 201.94L93.021 208.94Z" fill="#2F2E41"/>
<path d="M144.025 54.2143C157.59 54.2143 168.586 43.218 168.586 29.6533C168.586 16.0886 157.59 5.09229 144.025 5.09229C130.46 5.09229 119.464 16.0886 119.464 29.6533C119.464 43.218 130.46 54.2143 144.025 54.2143Z" fill="#FFC8A9"/>
<path d="M123.521 63.4404C123.521 63.4404 138.521 53.4404 155.521 75.4404L160.021 213.94C160.021 213.94 147.021 195.94 120.021 212.94C93.0209 229.94 87.0209 210.94 87.0209 210.94C87.0209 210.94 68.0209 67.9404 123.521 63.4404Z" fill="#CCCCCC"/>
<path d="M154.311 75.0914C158.625 75.3246 162.701 77.1449 165.753 80.2021C168.806 83.2592 170.621 87.3373 170.848 91.6517L174.021 151.941L195.021 208.941L183.021 218.941L144.021 150.941L136.036 95.0475C135.67 92.4857 135.877 89.8746 136.641 87.4022C137.405 84.9298 138.708 82.6576 140.456 80.7491C142.203 78.8406 144.352 77.3433 146.748 76.365C149.144 75.3867 151.727 74.9518 154.311 75.0914V75.0914Z" fill="#CCCCCC"/>
<path d="M125.978 48.0764C129.993 52.3535 137.45 50.0575 137.973 44.2143C138.014 43.7607 138.011 43.3041 137.964 42.851C137.694 40.2628 136.199 37.913 136.557 35.1801C136.638 34.5 136.891 33.8518 137.293 33.297C140.493 29.0124 148.004 35.2134 151.024 31.3347C152.875 28.9563 150.699 25.2117 152.12 22.5535C153.995 19.0451 159.55 20.7758 163.033 18.8544C166.909 16.7167 166.677 10.7702 164.126 7.15322C161.014 2.74223 155.559 0.388471 150.172 0.0492209C144.785 -0.290029 139.434 1.16631 134.405 3.12637C128.69 5.35337 123.023 8.43118 119.507 13.456C115.23 19.5667 114.819 27.782 116.957 34.9273C118.259 39.2739 122.699 44.5837 125.978 48.0764Z" fill="#2F2E41"/>
<path d="M648.485 515.807H1.19069C0.875494 515.806 0.573515 515.68 0.350964 515.457C0.128412 515.234 0.00345993 514.932 0.00345993 514.616C0.00345993 514.301 0.128412 513.999 0.350964 513.776C0.573515 513.552 0.875494 513.427 1.19069 513.426H648.485C648.8 513.427 649.102 513.552 649.324 513.776C649.547 513.999 649.672 514.301 649.672 514.616C649.672 514.932 649.547 515.234 649.324 515.457C649.102 515.68 648.8 515.806 648.485 515.807Z" fill="#3F3D56"/>
</g>
<defs>
<clipPath id="clip0">
<rect width="649.675" height="516.232" fill="white"/>
</clipPath>
</defs>
</svg>
